<svg viewBox="0 0 128 128" xmlns="http://www.w3.org/2000/svg">
  <style>
    .salmon { fill: #FF8C69; }
    .teal { fill: #008080; }
    .ink { fill: #1A1A1A; }
  </style>
  <!-- Alert ! -->
  <circle cx="100" cy="30" r="14" fill="#FFD700" stroke="#B8860B" stroke-width="2"/>
  <text x="100" y="36" fill="#1A1A1A" font-weight="bold" font-size="18" text-anchor="middle" font-family="sans-serif">!</text>
  <!-- Tail -->
  <path d="M 50 100 Q 64 125 78 100 Z" class="salmon" stroke="#8B3A3A" stroke-width="4" stroke-linejoin="round"/>
  <!-- Left Claw - raised startled -->
  <g transform="translate(0, -20) rotate(-45, 30, 70)">
    <path d="M 40 55 A 24 24 0 1 1 10 85 Q 20 80 25 75 Q 20 65 30 70 Z" class="salmon" stroke="#8B3A3A" stroke-width="4" stroke-linejoin="round"/>
  </g>
  <!-- Right Claw - raised startled -->
  <g transform="translate(0, -20) rotate(45, 98, 70)">
    <path d="M 88 55 A 24 24 0 1 0 118 85 Q 108 80 103 75 Q 108 65 98 70 Z" class="salmon" stroke="#8B3A3A" stroke-width="4" stroke-linejoin="round"/>
  </g>
  <!-- Body -->
  <rect x="34" y="28" width="60" height="75" rx="30" class="salmon" stroke="#8B3A3A" stroke-width="4"/>
  <!-- Belt -->
  <path d="M 34 82 Q 64 92 94 82 L 94 88 Q 64 98 34 88 Z" class="teal" stroke="#004D4D" stroke-width="2"/>
  <path d="M 75 85 L 88 108 L 68 102 Z" class="teal" stroke="#004D4D" stroke-width="2" stroke-linejoin="round"/>
  <!-- Eyes - wide -->
  <circle cx="48" cy="55" r="9" class="ink"/>
  <circle cx="48" cy="55" r="3" fill="#FFF"/>
  <circle cx="80" cy="55" r="9" class="ink"/>
  <circle cx="80" cy="55" r="3" fill="#FFF"/>
  <!-- Mouth - O surprised -->
  <circle cx="64" cy="70" r="3" class="ink"/>
</svg>
