<svg viewBox="0 0 128 128" xmlns="http://www.w3.org/2000/svg">
  <style>
    .salmon { fill: #FF8C69; }
    .teal { fill: #008080; }
    .ink { fill: #1A1A1A; }
  </style>
  <!-- Motion lines -->
  <path d="M 5 80 L 20 80" fill="none" stroke="#888" stroke-width="2" stroke-linecap="round" opacity="0.4"/>
  <path d="M 10 90 L 25 90" fill="none" stroke="#888" stroke-width="2" stroke-linecap="round" opacity="0.3"/>
  <!-- Tail -->
  <path d="M 50 100 Q 64 125 78 100 Z" class="salmon" stroke="#8B3A3A" stroke-width="4" stroke-linejoin="round"/>
  <!-- Left Claw - walking motion -->
  <g transform="rotate(-15, 30, 70) translate(0, -8)">
    <path d="M 40 55 A 24 24 0 1 1 10 85 Q 20 80 25 75 Q 20 65 30 70 Z" class="salmon" stroke="#8B3A3A" stroke-width="4" stroke-linejoin="round"/>
  </g>
  <!-- Right Claw - walking motion -->
  <g transform="rotate(10, 98, 70)">
    <path d="M 88 55 A 24 24 0 1 0 118 85 Q 108 80 103 75 Q 108 65 98 70 Z" class="salmon" stroke="#8B3A3A" stroke-width="4" stroke-linejoin="round"/>
  </g>
  <!-- Body - slight waddle tilt -->
  <g transform="rotate(-4, 64, 100)">
    <rect x="34" y="28" width="60" height="75" rx="30" class="salmon" stroke="#8B3A3A" stroke-width="4"/>
    <!-- Belt -->
    <path d="M 34 82 Q 64 92 94 82 L 94 88 Q 64 98 34 88 Z" class="teal" stroke="#004D4D" stroke-width="2"/>
    <path d="M 75 85 L 88 108 L 68 102 Z" class="teal" stroke="#004D4D" stroke-width="2" stroke-linejoin="round"/>
    <!-- Eyes - looking forward -->
    <circle cx="48" cy="55" r="7" class="ink"/>
    <circle cx="80" cy="55" r="7" class="ink"/>
    <circle cx="48" cy="53" r="2.5" fill="#FFF"/>
    <circle cx="80" cy="53" r="2.5" fill="#FFF"/>
    <!-- Mouth -->
    <path d="M 60 68 Q 64 71 68 68" fill="none" stroke="#1A1A1A" stroke-width="2" stroke-linecap="round"/>
  </g>
</svg>
